<svg width="950" height="736" viewBox="0 0 950 736" fill="none" xmlns="http://www.w3.org/2000/svg">
<g clip-path="url(#clip0_501_194)">
<path d="M950 20.1836V0H740.838L477.18 575.901L209.162 0H0V20.618C72.8061 21.9213 134.679 67.702 159.496 131.828L437.943 736H455.918L713.305 176.506C752.307 84.6442 843.591 20.1502 950 20.1502V20.1836Z" fill="#217D34"/>
<path d="M230.961 715.917C230.961 715.917 230.961 715.917 230.927 715.917C229.418 715.984 227.909 716.017 226.4 716.017C172.374 716.017 128.576 672.375 128.576 618.541C128.576 672.375 84.7783 716.017 30.7523 716.017C29.2431 716.017 27.734 715.984 26.2249 715.917C26.2249 715.917 26.1914 715.917 26.1579 715.917H0V736H257.118V715.917H230.961Z" fill="#217D34"/>
<path d="M921.73 715.85C919.382 715.983 917.034 716.05 914.653 716.05C854.926 716.05 804.69 675.349 789.934 620.078C775.145 675.349 724.908 716.05 665.215 716.05C663.739 716.05 662.264 715.983 660.788 715.95H636.273V736.033H950.034V715.95H924.446C923.54 715.95 922.702 715.883 921.797 715.85H921.73Z" fill="#217D34"/>
</g>
<defs>
<clipPath id="clip0_501_194">
<rect width="950" height="736" fill="white"/>
</clipPath>
</defs>
</svg>
