<svg width="1920" height="942" viewBox="0 0 1920 942" fill="none" xmlns="http://www.w3.org/2000/svg">
<rect width="1920" height="942" fill="#275831"/>
<g clip-path="url(#clip0_589_3)">
<path d="M1920 25.8328V0H1652.27L1314.79 737.091L971.728 0H704V26.3888C797.192 28.0568 876.39 86.6512 908.155 168.726L1264.57 942H1287.58L1617.03 225.909C1666.95 108.335 1783.8 25.7901 1920 25.7901V25.8328Z" fill="#217D34"/>
<path d="M999.629 916.296C999.629 916.296 999.629 916.296 999.587 916.296C997.655 916.381 995.723 916.424 993.792 916.424C924.638 916.424 868.577 860.567 868.577 791.665C868.577 860.567 812.516 916.424 743.363 916.424C741.431 916.424 739.5 916.381 737.568 916.296C737.568 916.296 737.525 916.296 737.482 916.296H704V942H1033.11V916.296H999.629Z" fill="#217D34"/>
<path d="M1883.81 916.21C1880.81 916.381 1877.8 916.467 1874.76 916.467C1798.31 916.467 1734 864.373 1715.12 793.632C1696.19 864.373 1631.88 916.467 1555.47 916.467C1553.59 916.467 1551.7 916.381 1549.81 916.338H1518.43V942.043H1920.04V916.338H1887.29C1886.13 916.338 1885.06 916.253 1883.9 916.21H1883.81Z" fill="#217D34"/>
</g>
<defs>
<clipPath id="clip0_589_3">
<rect width="1216" height="942" fill="white" transform="translate(704)"/>
</clipPath>
</defs>
</svg>
